extratorrent.com
 
http://extratorrent.com/torrent/2265353

Genre:Action | Sci-Fi | Thriller 
Language:English
IMDb:[url]http://www.imdb.com/title/tt1053424/[/url]
Source:720p.BluRay.x264-MACHD
Encoder: Tony2
.............................................
General
Complete name                    : Repo.Men.2010.UNRATED.480p.BRRip.MP4.AAC.FEEL-FREE
Format                           : MPEG-4
Format profile                   : Base Media
Codec ID                         : isom
File size                        : 1.14 GiB
Duration                         : 1h 59mn
Overall bit rate                 : 1 369 Kbps
...............................................
Video
ID                               : 1
Format                           : MPEG-4 Visual
Format profile                   : Simple@L1
Format settings, BVOP            : No
Format settings, QPel            : No
Format settings, GMC             : No warppoints
Format settings, Matrix          : Default (H.263)
Codec ID                         : 20
Duration                         : 1h 59mn
Bit rate mode                    : Variable
Bit rate                         : 1 199 Kbps
Width                            : 720 pixels
Height                           : 304 pixels
Display aspect ratio             : 2.35:1
Frame rate mode                  : Constant
Frame rate                       : 29.970 fps
Resolution                       : 24 bits
Colorimetry                      : 4:2:0
Scan type                        : Progressive
Bits/(Pixel*Frame)               : 0.183
Stream size                      : 1.00 GiB (88%)
................................................
Audio
ID                               : 2
Format                           : AAC
Format/Info                      : Advanced Audio Codec
Format version                   : Version 4
Format profile                   : LC
Format settings, SBR             : No
Codec ID                         : 40
Duration                         : 1h 59mn
Bit rate mode                    : Variable
Bit rate                         : 165 Kbps
Channel(s)                       : 2 channels
Channel positions                : L R
Sampling rate                    : 48.0 KHz
Resolution                       : 16 bits
Stream size                      : 141 MiB (12%)
................................................
Plot:
   Set in the near future when artificial organs can be bought on credit, it revolves around a man who struggles to make the payments on a heart he has purchased. He must therefore go on the run before said ticker is repossessed